<?xml version="1.0" encoding="utf-8"?>
<!-- Generator: Adobe Illustrator 24.3.0, SVG Export Plug-In . SVG Version: 6.00 Build 0)  -->
<svg version="1.1" xmlns="http://www.w3.org/2000/svg" xmlns:xlink="http://www.w3.org/1999/xlink" x="0px" y="0px"
	 viewBox="0 0 1920 1080" style="enable-background:new 0 0 1920 1080;" xml:space="preserve">
<style type="text/css">
	.st0{stroke:#000000;stroke-miterlimit:10;}
	.st1{fill:#FFFFFF;stroke:#000000;stroke-miterlimit:10;}
	.st2{fill:#740000;stroke:#D00000;stroke-miterlimit:10;}
	.st3{font-family:'MyriadPro-Regular';}
	.st4{font-size:307.9794px;}
	.st5{display:none;}
</style>
<g id="Layer_1">
	<path class="st0" d="M1318.5,824.5h-651c-6.6,0-12-5.4-12-12v-546c0-6.6,5.4-12,12-12h651c6.6,0,12,5.4,12,12v546
		C1330.5,819.1,1325.1,824.5,1318.5,824.5z"/>
	<path class="st1" d="M1297.5,801.5h-609c-6.6,0-12-5.4-12-12v-500c0-6.6,5.4-12,12-12h609c6.6,0,12,5.4,12,12v500
		C1309.5,796.1,1304.1,801.5,1297.5,801.5z"/>
	<polygon class="st0" points="676.5,277.5 993,482.21 1309.5,277.5 	"/>
	<polygon class="st1" points="701,277.5 993.33,449 1285.65,277.5 	"/>
	<text transform="matrix(1.4466 0 0 1 824.6567 692.0049)" class="st2 st3 st4">@</text>
</g>
<g id="Layer_2" class="st5">
</g>
</svg>
